HIERARCHY
ROOT Hips
{
  OFFSET 48.5577 84.0192 11.6562
  CHANNELS 6 Xposition Yposition Zposition Zrotation Xrotation Yrotation
  JOINT spine
  {
    OFFSET 0 5.95438 0.342407
    CHANNELS 3 Zrotation Xrotation Yrotation
    JOINT spine1
    {
      OFFSET 0 8.85602 0
      CHANNELS 3 Zrotation Xrotation Yrotation
      JOINT spine2
      {
        OFFSET 0 8.48567 0
        CHANNELS 3 Zrotation Xrotation Yrotation
        JOINT Neck
        {
          OFFSET 0 21.7863 1.0387
          CHANNELS 3 Zrotation Xrotation Yrotation
          JOINT Head
          {
            OFFSET 0 6.5822 0
            CHANNELS 3 Zrotation Xrotation Yrotation
            End Site
            {
              OFFSET 0 15.9326 -5.25436
            }
          }
        }
        JOINT RightShoulder
        {
          OFFSET -3.57307 9.16386 -0.497525
          CHANNELS 3 Zrotation Xrotation Yrotation
          JOINT RightArm
          {
            OFFSET 0 12.0192 0
            CHANNELS 3 Zrotation Xrotation Yrotation
            JOINT RightArmRoll
            {
              OFFSET 0 6.06754 0
              CHANNELS 3 Zrotation Xrotation Yrotation
              JOINT RightForeArm
              {
                OFFSET 0 17.6726 0
                CHANNELS 3 Zrotation Xrotation Yrotation
                JOINT RightForeArmRoll
                {
                  OFFSET 0 6.80872 0
                  CHANNELS 3 Zrotation Xrotation Yrotation
                  JOINT RightHand
                  {
                    OFFSET 0 13.6636 0
                    CHANNELS 3 Zrotation Xrotation Yrotation
                    End Site
                    {
                      OFFSET 0 0 0
                    }
                  }
                }
              }
            }
          }
        }
        JOINT LeftShoulder
        {
          OFFSET 3.57307 9.16386 -0.497525
          CHANNELS 3 Zrotation Xrotation Yrotation
          JOINT LeftArm
          {
            OFFSET 0 12.0192 0
            CHANNELS 3 Zrotation Xrotation Yrotation
            JOINT LeftArmRoll
            {
              OFFSET 0 6.06754 0
              CHANNELS 3 Zrotation Xrotation Yrotation
              JOINT LeftForeArm
              {
                OFFSET 0 17.6726 0
                CHANNELS 3 Zrotation Xrotation Yrotation
                JOINT LeftForeArmRoll
                {
                  OFFSET 0 6.80872 0
                  CHANNELS 3 Zrotation Xrotation Yrotation
                  JOINT LeftHand
                  {
                    OFFSET 0 13.6636 0
                    CHANNELS 3 Zrotation Xrotation Yrotation
                    End Site
                    {
                      OFFSET 0 0 0
                    }
                  }
                }
              }
            }
          }
        }
      }
    }
  }
  JOINT RightUpLeg
  {
    OFFSET -5.27774 -0.967797 -0.811858
    CHANNELS 3 Zrotation Xrotation Yrotation
    JOINT RightUpLegRoll
    {
      OFFSET 0 16.0214 0
      CHANNELS 3 Zrotation Xrotation Yrotation
      JOINT RightLeg
      {
        OFFSET 0 -19.8401 0
        CHANNELS 3 Zrotation Xrotation Yrotation
        JOINT RightLegRoll
        {
          OFFSET 0 19.905 0
          CHANNELS 3 Zrotation Xrotation Yrotation
          JOINT RightFoot
          {
            OFFSET 0 16.5675 0
            CHANNELS 3 Zrotation Xrotation Yrotation
            JOINT RightToeBase
            {
              OFFSET 0 13.8496 0
              CHANNELS 3 Zrotation Xrotation Yrotation
              End Site
              {
                OFFSET 0.00587034 6.70727 -0.773117
              }
            }
          }
        }
      }
    }
  }
  JOINT LeftUpLeg
  {
    OFFSET 5.27774 -0.967797 -0.811858
    CHANNELS 3 Zrotation Xrotation Yrotation
    JOINT LeftUpLegRoll
    {
      OFFSET 0 16.0215 0
      CHANNELS 3 Zrotation Xrotation Yrotation
      JOINT LeftLeg
      {
        OFFSET 0 19.84 0
        CHANNELS 3 Zrotation Xrotation Yrotation
        JOINT LeftLegRoll
        {
          OFFSET 0 20.089 0
          CHANNELS 3 Zrotation Xrotation Yrotation
          JOINT LeftFoot
          {
            OFFSET 0 16.3835 0
            CHANNELS 3 Zrotation Xrotation Yrotation
            JOINT LeftToeBase
            {
              OFFSET 0 13.8496 0
              CHANNELS 3 Zrotation Xrotation Yrotation
              End Site
              {
                OFFSET -0.0263083 6.70727 -0.773117
              }
            }
          }
        }
      }
    }
  }
}
MOTION
Frames: 10
Frame Time: 0.00208333
47.0285 83.8232 6.59749 3.87989 1.3521 50.7865 0.0992714 -0.371105 0.0984876 0.173879 3.26075 0.195625 0.171766 4.90581 0.186327 -3.90033 27.2385 7.85075 2.04513 -6.98196 6.41026 63.9914 3.58847 1.45574 118.109 36.0831 -34.1424 3.93138e-007 -2.87303e-005 7.83933e-006 -5.07807 52.5242 0.0676606 -8.98366e-006 1.80516e-005 -3.00001 8.03003 -4.95095 0.697559 -68.7456 -6.62988 4.50121 -109.452 16.4564 8.85674 2.26095e-006 3.6787e-006 -8.18814e-006 3.65235 -0.0274343 1.99256 4.09488e-005 1.86979e-006 3.01159 -8.03012 -4.9514 -0.697629 174.228 6.04146 3.47566 180 7.01578e-015 179.065 -179.324 16.9186 179.182 -2.93115e-006 2.77036e-007 0.576953 -23.0671 72.4499 24.1831 8.13045 25.233 -3.48516 176.586 8.57263 3.42355 4.54188e-006 -4.6773e-006 -0.783037 -1.73341 -8.4652 0.151167 3.88482e-006 2.74377e-007 0.0801839 15.9063 63.8242 -16.6132 -8.13649 25.2327 3.48755 
47.0732 83.8165 6.57686 3.87794 1.32176 50.8408 0.0981838 -0.378529 0.0984913 0.173229 3.24591 0.19537 0.171114 4.89096 0.186424 -3.78585 27.094 7.80754 1.97948 -6.96456 6.41239 64.1144 3.63644 1.46227 118.004 36.1835 -34.044 3.93138e-007 -2.87303e-005 7.83933e-006 -5.08421 52.5969 0.0754279 -8.98366e-006 1.80516e-005 -3.00001 8.03003 -4.95095 0.697559 -68.7141 -6.64423 4.50738 -109.507 16.4709 8.91165 2.26095e-006 3.6787e-006 -8.18814e-006 3.65235 -0.0274343 1.99256 4.09488e-005 1.86979e-006 3.01159 -8.03012 -4.9514 -0.697629 174.234 6.03518 3.48235 180 7.01577e-015 179.062 -179.327 16.9996 179.178 -2.93115e-006 2.77036e-007 0.574663 -23.0122 72.406 24.1252 8.13045 25.233 -3.48516 176.59 8.58103 3.41476 4.54188e-006 -4.6773e-006 -0.78574 -1.73642 -8.55956 0.152505 3.88482e-006 2.74377e-007 0.0770366 15.9287 63.8663 -16.6385 -8.13649 25.2327 3.48755 
47.1311 83.817 6.57928 3.87648 1.29147 50.8951 0.0970107 -0.385936 0.0984943 0.172483 3.23109 0.195116 0.170366 4.87615 0.186529 -3.67029 26.9505 7.76401 1.91297 -6.94925 6.41458 64.2381 3.68429 1.46869 117.898 36.2829 -33.9447 3.93138e-007 -2.87303e-005 7.83933e-006 -5.09036 52.6689 0.0832327 -8.98366e-006 1.80516e-005 -3.00001 8.03003 -4.95095 0.697559 -68.6827 -6.65803 4.51327 -109.561 16.4842 8.96586 2.26095e-006 3.6787e-006 -8.18814e-006 3.65235 -0.0274343 1.99256 4.09488e-005 1.86979e-006 3.01159 -8.03012 -4.9514 -0.697629 174.24 6.0276 3.4889 180 7.01576e-015 179.058 -179.329 17.0795 179.174 -2.93115e-006 2.77036e-007 0.572417 -22.9584 72.3626 24.0682 8.13045 25.233 -3.48516 176.593 8.58894 3.40662 4.54188e-006 -4.6773e-006 -0.788451 -1.73909 -8.65387 0.153865 3.88482e-006 2.74377e-007 0.0739075 15.9513 63.9085 -16.664 -8.13649 25.2327 3.48755 
47.2038 83.8336 6.64107 3.87538 1.26123 50.9493 0.0957776 -0.393332 0.0984967 0.171668 3.2163 0.194862 0.169549 4.86136 0.186639 -3.55404 26.8079 7.7203 1.84587 -6.93541 6.41681 64.3623 3.73205 1.47503 117.791 36.3818 -33.8446 3.93138e-007 -2.87303e-005 7.83933e-006 -5.09654 52.7404 0.0910715 -8.98366e-006 1.80516e-005 -3.00001 8.03003 -4.95095 0.697559 -68.6515 -6.67143 4.51895 -109.615 16.4966 9.01959 2.26095e-006 3.6787e-006 -8.18814e-006 3.65235 -0.0274343 1.99256 4.09488e-005 1.86979e-006 3.01159 -8.03012 -4.9514 -0.697629 174.245 6.0191 3.49537 180 7.01576e-015 179.055 -179.331 17.1586 179.17 -2.93115e-006 2.77036e-007 0.570201 -22.9053 72.3197 24.0121 8.13045 25.233 -3.48516 176.596 8.59651 3.39892 4.54188e-006 -4.6773e-006 -0.791169 -1.74153 -8.74815 0.155239 3.88482e-006 2.74377e-007 0.0707912 15.974 63.9508 -16.6897 -8.13649 25.2327 3.48755 
47.252 83.8256 6.6244 3.8745 1.23107 51.0035 0.0945104 -0.400721 0.0984988 0.170815 3.20152 0.194608 0.168693 4.84658 0.186752 -3.4375 26.6656 7.67657 1.77843 -6.92241 6.41907 64.4867 3.77976 1.48133 117.684 36.4804 -33.7441 3.93138e-007 -2.87303e-005 7.83933e-006 -5.10274 52.8115 0.0989407 -8.98366e-006 1.80516e-005 -3.00001 8.03003 -4.95095 0.697559 -68.6204 -6.68462 4.52451 -109.669 16.5084 9.07303 2.26095e-006 3.6787e-006 -8.18814e-006 3.65235 -0.0274343 1.99256 4.09488e-005 1.86979e-006 3.01159 -8.03012 -4.9514 -0.697629 174.251 6.01008 3.50178 180 7.01575e-015 179.052 -179.333 17.2374 179.166 -2.93115e-006 2.77036e-007 0.568002 -22.8528 72.2769 23.9565 8.13045 25.233 -3.48516 176.599 8.60389 3.39149 4.54188e-006 -4.6773e-006 -0.79389 -1.74383 -8.8424 0.156623 3.88482e-006 2.74377e-007 0.0676823 15.9968 63.9931 -16.7155 -8.13649 25.2327 3.48755 
47.3009 83.8251 6.62233 3.87373 1.20096 51.0578 0.0932346 -0.408109 0.0985009 0.169951 3.18674 0.194355 0.167828 4.8318 0.186866 -3.32108 26.5234 7.63294 1.7109 -6.90962 6.42134 64.6111 3.82745 1.48762 117.576 36.5789 -33.6433 3.93138e-007 -2.87303e-005 7.83933e-006 -5.10897 52.8826 0.106837 -8.98366e-006 1.80516e-005 -3.00001 8.03003 -4.95095 0.697559 -68.5893 -6.69774 4.53004 -109.723 16.5201 9.12642 2.26095e-006 3.6787e-006 -8.18814e-006 3.65235 -0.0274343 1.99256 4.09488e-005 1.86979e-006 3.01159 -8.03012 -4.9514 -0.697629 174.257 6.00093 3.50817 180 7.01574e-015 179.048 -179.334 17.316 179.162 -2.93115e-006 2.77036e-007 0.565808 -22.8006 72.2341 23.9014 8.13045 25.233 -3.48516 176.601 8.61121 3.38412 4.54188e-006 -4.6773e-006 -0.796612 -1.74609 -8.93665 0.158009 3.88482e-006 2.74377e-007 0.0645751 16.0197 64.0354 -16.7414 -8.13649 25.2327 3.48755 
47.3575 83.8215 6.6283 3.87292 1.17093 51.1121 0.0919759 -0.4155 0.0985031 0.169107 3.17195 0.194101 0.166983 4.81702 0.186978 -3.20516 26.3809 7.58956 1.64354 -6.89641 6.4236 64.7355 3.87517 1.49394 117.468 36.6776 -33.5424 3.93138e-007 -2.87303e-005 7.83933e-006 -5.11523 52.9539 0.114757 -8.98366e-006 1.80516e-005 -3.00001 8.03003 -4.95095 0.697559 -68.5582 -6.71098 4.53564 -109.778 16.5321 9.17995 2.26095e-006 3.6787e-006 -8.18814e-006 3.65235 -0.0274343 1.99256 4.09488e-005 1.86979e-006 3.01159 -8.03012 -4.9514 -0.697629 174.262 5.99205 3.5146 180 7.01573e-015 179.045 -179.336 17.3948 179.159 -2.93115e-006 2.77036e-007 0.563605 -22.7486 72.1913 23.8463 8.13045 25.233 -3.48516 176.604 8.61864 3.37661 4.54188e-006 -4.6773e-006 -0.799333 -1.74841 -9.03091 0.159393 3.88482e-006 2.74377e-007 0.0614643 16.0426 64.0777 -16.7673 -8.13649 25.2327 3.48755 
47.3963 83.8111 6.58576 3.87195 1.14096 51.1664 0.09076 -0.422899 0.0985057 0.168312 3.15715 0.193847 0.166186 4.80222 0.187086 -3.09015 26.2379 7.54658 1.57661 -6.88215 6.42582 64.8595 3.92295 1.50031 117.36 36.7767 -33.4419 3.93138e-007 -2.87303e-005 7.83933e-006 -5.12154 53.0255 0.122698 -8.98366e-006 1.80516e-005 -3.00001 8.03003 -4.95095 0.697559 -68.5269 -6.72449 4.54138 -109.832 16.5446 9.23384 2.26095e-006 3.6787e-006 -8.18814e-006 3.65235 -0.0274343 1.99256 4.09488e-005 1.86979e-006 3.01159 -8.03012 -4.9514 -0.697629 174.268 5.98381 3.52109 180 7.01573e-015 179.042 -179.338 17.4742 179.155 -2.93115e-006 2.77036e-007 0.561381 -22.6964 72.1481 23.7911 8.13045 25.233 -3.48516 176.607 8.62631 3.36879 4.54188e-006 -4.6773e-006 -0.802048 -1.75089 -9.1252 0.160768 3.88482e-006 2.74377e-007 0.0583444 16.0657 64.1199 -16.7933 -8.13649 25.2327 3.48755 
47.454 83.817 6.59943 3.87069 1.11107 51.2207 0.0896126 -0.430311 0.0985089 0.167593 3.14233 0.193592 0.165466 4.78739 0.187189 -2.97644 26.0939 7.50413 1.51035 -6.86622 6.428 64.9829 3.97084 1.50677 117.252 36.8765 -33.3418 3.93138e-007 -2.87303e-005 7.83933e-006 -5.1279 53.0977 0.130657 -8.98366e-006 1.80516e-005 -3.00001 8.03003 -4.95095 0.697559 -68.4955 -6.73845 4.54735 -109.887 16.5582 9.28831 2.26095e-006 3.6787e-006 -8.18814e-006 3.65235 -0.0274343 1.99256 4.09488e-005 1.86979e-006 3.01159 -8.03012 -4.9514 -0.697629 174.274 5.97662 3.52768 180 7.01572e-015 179.038 -179.34 17.5544 179.151 -2.93115e-006 2.77036e-007 0.559121 -22.644 72.1045 23.7356 8.13045 25.233 -3.48516 176.61 8.63436 3.36045 4.54188e-006 -4.6773e-006 -0.804757 -1.75364 -9.21952 0.162128 3.88482e-006 2.74377e-007 0.0552098 16.0887 64.162 -16.8193 -8.13649 25.2327 3.48755 
47.5095 83.7923 6.62936 3.86902 1.08126 51.2752 0.0885592 -0.437741 0.0985129 0.166982 3.12747 0.193337 0.164854 4.77253 0.187283 -2.86443 25.9487 7.46235 1.44503 -6.84799 6.4301 65.1056 4.01886 1.51336 117.145 36.9774 -33.2425 3.93138e-007 -2.87303e-005 7.83933e-006 -5.1343 53.1707 0.138631 -8.98366e-006 1.80516e-005 -3.00001 8.03003 -4.95095 0.697559 -68.4638 -6.75303 4.55365 -109.941 16.5731 9.34357 2.26095e-006 3.6787e-006 -8.18814e-006 3.65235 -0.0274343 1.99256 4.09488e-005 1.86979e-006 3.01159 -8.03012 -4.9514 -0.697629 174.279 5.97086 3.53442 180 7.01571e-015 179.035 -179.343 17.6358 179.147 -2.93115e-006 2.77036e-007 0.556814 -22.591 72.0602 23.6796 8.13045 25.233 -3.48516 176.614 8.64295 3.3514 4.54188e-006 -4.6773e-006 -0.807456 -1.75675 -9.3139 0.163468 3.88482e-006 2.74377e-007 0.0520552 16.1118 64.2041 -16.8453 -8.13649 25.2327 3.48755 
